<svg version="1.1" id="Layer_1" xmlns="http://www.w3.org/2000/svg" xmlns:xlink="http://www.w3.org/1999/xlink" x="0px" y="0px"
	 width="100%" viewBox="0 0 1080 1080" enable-background="new 0 0 1080 1080" xml:space="preserve">
<path fill="#6A39FD" opacity="1.000000" stroke="none" 
	d="
M427.000000,1.000000 
	C644.911621,1.000000 862.823242,1.000000 1081.000000,1.000000 
	C1081.000000,132.358124 1081.000000,263.716400 1080.598755,395.530884 
	C1077.469971,395.303772 1074.764526,394.509979 1072.011108,393.955658 
	C1056.862549,390.906189 1041.472046,388.757812 1026.602295,384.697632 
	C1006.598572,379.235687 986.459045,376.982208 965.855652,378.031006 
	C963.894470,378.130829 961.898376,378.479828 960.015808,379.040161 
	C946.744385,382.990387 935.553650,390.925659 924.159790,398.328003 
	C915.830566,403.739349 908.569031,410.937286 899.921021,415.677612 
	C889.701782,421.279144 881.686951,429.329193 874.451965,437.676575 
	C864.415039,449.256836 855.361572,461.875122 848.377319,475.754608 
	C845.584412,481.304840 842.240967,486.578033 839.098694,491.512085 
	C838.942261,482.718964 838.835205,474.391083 838.775085,465.611450 
	C838.743591,462.742981 838.665161,460.326324 838.495361,457.595520 
	C834.618347,455.369507 830.832764,453.457581 826.997620,451.214417 
	C823.132568,443.248993 815.482361,444.392426 808.560730,443.033020 
	C799.555847,438.792572 790.979126,434.416809 782.279175,430.301636 
	C771.458862,425.183563 760.540283,420.272827 749.657227,415.287720 
	C741.937744,411.751709 734.401917,408.578705 725.368958,408.795593 
	C702.593079,409.342346 679.793518,408.901459 657.006226,408.396729 
	C657.001221,383.691132 657.013855,359.445190 656.979248,335.199280 
	C656.949097,314.111572 656.865662,293.023895 656.674927,271.628174 
	C649.232605,267.636475 642.003479,263.776978 634.591858,260.307129 
	C620.764465,253.833664 606.830994,247.586655 592.939087,240.932129 
	C588.227051,235.883804 582.292786,233.956039 575.902283,233.146454 
	C575.943604,233.124252 575.909912,233.211823 575.769897,232.922928 
	C574.408813,232.374466 573.187744,232.114899 571.612671,231.889771 
	C564.497192,229.026840 557.735718,226.129471 550.512817,223.155334 
	C508.011078,223.044952 465.970886,222.999878 423.930695,222.988174 
	C416.291290,222.986038 408.651794,223.120377 400.568604,223.141556 
	C397.745514,223.140717 395.366211,223.190033 392.523682,223.166290 
	C385.690582,223.150131 379.320679,223.207047 372.637634,223.222214 
	C371.909790,223.235443 371.495026,223.290405 370.884552,223.262024 
	C370.688812,223.178696 370.273438,223.092819 369.788940,223.055435 
	C361.313416,223.015152 353.322418,223.017075 345.331421,223.008545 
	C301.215759,222.961472 257.100128,222.911850 213.113342,222.581009 
	C216.389572,221.613663 219.784409,221.463181 222.637848,220.142746 
	C231.161575,216.198456 239.957550,212.529877 247.747482,207.389969 
	C257.956360,200.654022 270.395569,198.028320 279.541077,189.516205 
	C280.086914,189.008209 281.226959,189.185120 281.876343,188.734604 
	C287.756256,184.655350 293.916534,181.215271 301.018219,179.724335 
	C301.604828,179.601166 302.121124,179.007385 302.607544,178.563690 
	C307.888092,173.747223 313.123596,168.880615 318.450531,164.116150 
	C319.781036,162.926132 321.265106,161.710175 322.900085,161.090576 
	C332.638275,157.400055 339.024536,149.385239 345.575897,142.196625 
	C353.695038,133.287720 360.118622,122.833618 367.275085,113.047333 
	C374.815125,102.736511 382.778412,92.700958 389.731232,82.008331 
	C393.655609,75.973091 395.733032,68.765190 398.969391,62.247879 
	C404.353149,51.406277 410.354706,40.859188 415.427765,29.879303 
	C419.771606,20.477615 423.178619,10.643087 427.000000,1.000000 
z"/>
<path fill="#6837FD" opacity="1.000000" stroke="none" 
	d="
M406.000000,1081.000000 
	C271.058807,1081.000000 136.117599,1081.000000 1.000000,1081.000000 
	C1.000000,890.641785 1.000000,700.283508 1.366127,509.439148 
	C2.781296,508.500732 3.905552,508.170135 4.866920,507.575989 
	C10.196229,504.282501 15.376495,500.731567 20.822790,497.648590 
	C25.408451,495.052795 30.410332,493.193695 35.003883,490.610077 
	C40.020054,487.788757 44.709286,484.392303 49.665718,481.457153 
	C56.869789,477.190979 65.172920,474.204529 71.237617,468.716644 
	C82.141357,458.849884 93.426735,449.886414 106.549164,443.197083 
	C111.045708,440.904907 115.000954,437.565155 119.456314,435.175323 
	C134.180878,427.277191 149.062653,419.672302 163.792877,411.784515 
	C168.639160,409.189362 173.207825,406.075775 178.666550,402.731812 
	C178.936920,408.338898 179.142120,412.594299 179.347321,416.849670 
	C179.924561,416.830322 180.501816,416.810974 181.079071,416.791626 
	C181.079071,411.477295 181.079071,406.162964 181.079071,400.647522 
	C183.591629,400.806091 185.229401,400.909454 186.908188,401.473022 
	C187.020645,405.939453 187.092087,409.945679 187.114410,414.422943 
	C187.045197,473.945068 187.045837,532.996216 186.949036,592.047058 
	C186.943710,595.300232 187.927017,597.248474 190.966568,598.614807 
	C198.375748,601.945312 205.656891,605.560608 213.020706,609.423950 
	C214.933304,611.444214 216.561981,613.653564 218.744690,614.653625 
	C224.774094,617.416199 230.983170,619.816772 237.224731,622.074158 
	C240.717102,623.337280 244.415131,624.031677 248.324936,625.125610 
	C250.415985,626.189148 252.202606,627.109314 254.032288,628.384644 
	C255.312057,629.970459 256.345886,631.605225 257.827179,632.348816 
	C261.030762,633.957275 264.414276,635.253845 267.814667,636.412415 
	C272.570038,638.032776 277.407928,639.410889 282.535217,641.011230 
	C285.949280,642.338501 289.038666,643.547119 292.475708,644.970947 
	C295.113190,645.446167 297.410919,645.977051 299.691010,645.909729 
	C304.331482,645.772827 308.965210,645.001831 313.596771,645.043152 
	C329.062195,645.180847 344.525421,645.561768 360.273926,646.081848 
	C362.116180,646.759277 363.674011,647.204407 365.186218,647.636475 
	C365.711639,651.872803 363.776062,653.075562 360.004822,653.049255 
	C343.691101,652.935303 327.376129,652.990906 311.061676,653.019348 
	C309.408691,653.022217 307.756134,653.256775 306.103363,653.383850 
	C306.127136,653.838440 306.150879,654.292969 306.174622,654.747559 
	C307.912140,654.830811 309.649536,654.984192 311.387146,654.986328 
	C327.202240,655.006042 343.019836,655.158020 358.830872,654.904663 
	C363.626190,654.827820 365.131927,656.323853 365.097778,661.141235 
	C364.904297,688.441650 365.004425,715.744202 365.004944,743.046021 
	C365.005157,755.365112 364.995117,767.684265 365.016418,780.003357 
	C365.020447,782.321228 364.671600,784.966431 368.428284,784.857422 
	C368.541626,784.871887 368.763916,784.924927 369.081207,784.942444 
	C369.610321,784.957825 369.822174,784.955627 370.024994,784.972290 
	C370.015991,784.991028 370.043518,784.949890 370.110535,785.292908 
	C373.457397,787.421997 376.737244,789.208069 380.276733,791.067505 
	C387.104065,794.424011 393.017975,799.407898 400.999573,799.004883 
	C400.997559,799.002441 400.993866,798.996643 401.121704,799.187988 
	C401.442230,799.620667 401.668732,799.824524 402.238953,800.091980 
	C403.367523,800.473694 404.186188,800.754211 405.082581,801.372559 
	C407.128510,803.373230 408.863403,805.526123 411.113342,806.597168 
	C415.825836,808.840698 420.762085,810.649536 425.695465,812.383667 
	C430.469910,814.061890 435.355988,815.422485 440.390869,816.938477 
	C440.588654,816.954346 440.973785,817.050110 440.993439,817.432007 
	C443.165924,819.381714 445.144318,821.315613 447.507599,822.441589 
	C452.565033,824.851196 457.821442,826.843140 463.112030,829.343628 
	C465.996338,830.787537 468.755920,832.827820 471.534943,832.854675 
	C497.182373,833.102234 522.833130,832.988037 548.482910,833.029297 
	C550.512634,833.032593 552.541687,833.413696 556.277039,833.791931 
	C553.368652,837.316284 551.194641,839.493591 549.581238,842.027710 
	C547.786255,844.847168 546.501831,847.991699 544.824463,851.279907 
	C537.862732,858.782166 531.048035,865.977295 524.298035,873.232605 
	C522.719666,874.929199 521.361511,876.830505 519.899963,878.635925 
	C516.883850,882.361877 513.935730,886.145630 510.833801,889.798767 
	C505.460022,896.127502 499.552277,902.054382 494.666473,908.733521 
	C487.708527,918.245178 481.335449,928.196716 474.961945,938.120483 
	C467.601562,949.580933 460.631866,961.292358 453.267212,972.750000 
	C447.463837,981.778503 440.656494,990.223328 435.506409,999.593262 
	C430.033386,1009.550842 424.697235,1019.718262 423.608307,1031.568359 
	C423.167572,1036.364380 420.836243,1041.134766 418.698944,1045.597656 
	C413.247253,1056.981812 407.556946,1068.235596 406.000000,1081.000000 
z"/>
<path fill="#8B68FE" opacity="1.000000" stroke="none" 
	d="
M1081.000000,675.000000 
	C1081.000000,810.270203 1081.000000,945.540344 1081.000000,1081.000000 
	C910.975952,1081.000000 740.951843,1081.000000 570.488037,1080.621582 
	C575.058289,1064.436401 584.091492,1050.900269 594.999207,1038.784790 
	C603.537964,1029.300293 613.275940,1020.890564 622.540771,1012.065918 
	C634.332153,1000.834534 646.171997,989.653809 658.014771,978.476562 
	C663.899841,972.922058 669.499390,966.995483 675.825989,961.993530 
	C687.246399,952.964294 699.185547,944.594360 710.755676,935.749695 
	C714.291870,933.046448 717.637268,929.954590 720.530151,926.578064 
	C726.219299,919.937683 731.465149,912.919922 737.013794,906.156250 
	C743.745972,897.950073 750.795776,889.997498 757.342102,881.648193 
	C762.527100,875.035339 767.160034,867.989563 772.283081,861.083740 
	C772.692322,861.000183 772.856506,860.968933 773.479736,860.951965 
	C777.619324,860.989868 781.299866,861.013428 785.153198,861.385681 
	C786.690491,862.154663 788.054260,862.939392 789.419617,862.942200 
	C823.069458,863.010803 856.719421,863.022888 890.369019,862.912598 
	C891.916870,862.907532 893.460632,861.670593 895.291626,860.918518 
	C896.018677,860.226929 896.460266,859.624146 896.933228,858.552246 
	C896.976257,826.973022 897.012268,795.862915 896.992065,764.752747 
	C896.975586,739.466614 896.891602,714.180420 896.874756,688.580078 
	C896.963013,687.846375 897.014160,687.426880 897.436768,686.985535 
	C900.252380,685.968079 902.786072,685.146912 905.124451,683.945496 
	C913.939087,679.416809 923.074036,675.361511 931.378052,670.023010 
	C944.931274,661.310059 958.717651,654.403015 975.502258,655.911499 
	C981.614319,656.460876 987.841553,655.670105 993.969543,656.122375 
	C997.622437,656.392029 1001.235474,657.731567 1004.775269,658.872803 
	C1009.516541,660.401489 1014.045837,662.848267 1018.882019,663.776611 
	C1039.544800,667.743225 1060.286865,671.296143 1081.000000,675.000000 
z"/>
<path fill="#784EFE" opacity="1.000000" stroke="none" 
	d="
M1081.000000,674.531372 
	C1060.286865,671.296143 1039.544800,667.743225 1018.882019,663.776611 
	C1014.045837,662.848267 1009.516541,660.401489 1004.775269,658.872803 
	C1001.235474,657.731567 997.622437,656.392029 993.969543,656.122375 
	C987.841553,655.670105 981.614319,656.460876 975.502258,655.911499 
	C958.717651,654.403015 944.931274,661.310059 931.378052,670.023010 
	C923.074036,675.361511 913.939087,679.416809 905.124451,683.945496 
	C902.786072,685.146912 900.252380,685.968079 897.418091,686.518188 
	C897.008911,682.776428 897.001526,679.480103 896.968384,676.184082 
	C896.907898,670.161438 887.914856,664.132202 881.620728,665.934814 
	C873.347229,661.903992 865.373962,658.063782 857.434265,654.155457 
	C851.936951,651.449463 846.485779,648.649597 840.880798,645.571045 
	C840.092041,643.515015 839.436462,641.779541 838.821411,639.574463 
	C838.827820,591.720703 838.793701,544.336609 838.828552,496.542786 
	C838.981018,494.747864 839.064575,493.362579 839.148071,491.977295 
	C842.240967,486.578033 845.584412,481.304840 848.377319,475.754608 
	C855.361572,461.875122 864.415039,449.256836 874.451965,437.676575 
	C881.686951,429.329193 889.701782,421.279144 899.921021,415.677612 
	C908.569031,410.937286 915.830566,403.739349 924.159790,398.328003 
	C935.553650,390.925659 946.744385,382.990387 960.015808,379.040161 
	C961.898376,378.479828 963.894470,378.130829 965.855652,378.031006 
	C986.459045,376.982208 1006.598572,379.235687 1026.602295,384.697632 
	C1041.472046,388.757812 1056.862549,390.906189 1072.011108,393.955658 
	C1074.764526,394.509979 1077.469971,395.303772 1080.598755,395.993530 
	C1081.000000,488.687561 1081.000000,581.375122 1081.000000,674.531372 
z"/>
<path fill="#784EFC" opacity="1.000000" stroke="none" 
	d="
M426.531342,1.000000 
	C423.178619,10.643087 419.771606,20.477615 415.427765,29.879303 
	C410.354706,40.859188 404.353149,51.406277 398.969391,62.247879 
	C395.733032,68.765190 393.655609,75.973091 389.731232,82.008331 
	C382.778412,92.700958 374.815125,102.736511 367.275085,113.047333 
	C360.118622,122.833618 353.695038,133.287720 345.575897,142.196625 
	C339.024536,149.385239 332.638275,157.400055 322.900085,161.090576 
	C321.265106,161.710175 319.781036,162.926132 318.450531,164.116150 
	C313.123596,168.880615 307.888092,173.747223 302.607544,178.563690 
	C302.121124,179.007385 301.604828,179.601166 301.018219,179.724335 
	C293.916534,181.215271 287.756256,184.655350 281.876343,188.734604 
	C281.226959,189.185120 280.086914,189.008209 279.541077,189.516205 
	C270.395569,198.028320 257.956360,200.654022 247.747482,207.389969 
	C239.957550,212.529877 231.161575,216.198456 222.637848,220.142746 
	C219.784409,221.463181 216.389572,221.613663 212.647980,222.621521 
	C205.380554,223.001678 198.707382,223.059250 191.740051,222.990082 
	C190.319138,223.242874 189.192337,223.622391 187.806488,224.318130 
	C187.335281,228.100021 187.123108,231.565689 186.530212,235.029099 
	C180.665161,237.625275 174.358353,239.243286 169.859848,243.016937 
	C158.947174,252.171295 148.654297,262.105499 138.536240,272.152985 
	C130.529510,280.103912 122.515961,288.200806 115.669006,297.125549 
	C108.172646,306.896820 101.977173,317.670502 95.298386,328.061066 
	C93.876366,330.273346 93.203316,333.055450 91.516937,334.993561 
	C85.538605,341.864258 79.606575,348.834259 73.035728,355.116852 
	C62.722382,364.977814 51.007015,373.125824 39.085587,380.940826 
	C38.113663,381.577942 37.127678,382.235291 36.064400,382.685089 
	C24.633980,387.520325 13.464861,393.109100 1.000000,395.000000 
	C1.000000,361.312439 1.000000,327.624878 1.438923,293.467712 
	C14.527653,292.396912 25.306524,288.056610 32.332283,276.966034 
	C39.939976,264.956848 47.520111,252.915451 54.629490,240.609192 
	C63.006973,226.107834 71.040115,211.399155 78.875343,196.596573 
	C82.656357,189.453369 86.149681,182.070297 88.860413,174.470245 
	C92.287384,164.862122 96.731491,156.506393 105.491356,150.475357 
	C111.402245,146.405792 116.760002,141.278427 121.553116,135.900482 
	C128.432571,128.181595 136.088455,122.316856 146.643341,121.170921 
	C157.635605,119.977501 168.046005,116.925400 178.055084,112.203941 
	C187.177292,107.900833 196.568542,104.168793 205.698303,99.880768 
	C214.556122,95.720482 223.337158,91.368683 231.958008,86.739838 
	C240.337646,82.240494 248.806107,77.154480 253.730637,68.960487 
	C260.971527,56.912254 270.722351,45.955463 271.462097,30.635628 
	C271.940704,20.723253 273.773834,10.876279 275.000000,1.000000 
	C325.354218,1.000000 375.708466,1.000000 426.531342,1.000000 
z"/>
<path fill="#784EFE" opacity="1.000000" stroke="none" 
	d="
M772.038086,861.135986 
	C767.160034,867.989563 762.527100,875.035339 757.342102,881.648193 
	C750.795776,889.997498 743.745972,897.950073 737.013794,906.156250 
	C731.465149,912.919922 726.219299,919.937683 720.530151,926.578064 
	C717.637268,929.954590 714.291870,933.046448 710.755676,935.749695 
	C699.185547,944.594360 687.246399,952.964294 675.825989,961.993530 
	C669.499390,966.995483 663.899841,972.922058 658.014771,978.476562 
	C646.171997,989.653809 634.332153,1000.834534 622.540771,1012.065918 
	C613.275940,1020.890564 603.537964,1029.300293 594.999207,1038.784790 
	C584.091492,1050.900269 575.058289,1064.436401 570.024170,1080.621582 
	C515.645752,1081.000000 461.291534,1081.000000 406.468658,1081.000000 
	C407.556946,1068.235596 413.247253,1056.981812 418.698944,1045.597656 
	C420.836243,1041.134766 423.167572,1036.364380 423.608307,1031.568359 
	C424.697235,1019.718262 430.033386,1009.550842 435.506409,999.593262 
	C440.656494,990.223328 447.463837,981.778503 453.267212,972.750000 
	C460.631866,961.292358 467.601562,949.580933 474.961945,938.120483 
	C481.335449,928.196716 487.708527,918.245178 494.666473,908.733521 
	C499.552277,902.054382 505.460022,896.127502 510.833801,889.798767 
	C513.935730,886.145630 516.883850,882.361877 519.899963,878.635925 
	C521.361511,876.830505 522.719666,874.929199 524.298035,873.232605 
	C531.048035,865.977295 537.862732,858.782166 545.162048,851.207214 
	C547.330933,849.082825 549.072266,847.384460 550.636169,845.536011 
	C554.139221,841.395386 557.554077,837.179993 561.472961,832.996582 
	C591.309998,832.991699 620.679016,832.985229 650.416992,832.999878 
	C663.446289,838.743347 676.065918,844.558167 688.781738,850.154480 
	C696.776306,853.672974 704.915161,856.863647 713.351196,860.399292 
	C715.692200,860.738037 717.670715,860.993591 719.650269,861.001526 
	C737.112732,861.071350 754.575439,861.097168 772.038086,861.135986 
z"/>
<path fill="#8A67FD" opacity="1.000000" stroke="none" 
	d="
M274.531342,1.000000 
	C273.773834,10.876279 271.940704,20.723253 271.462097,30.635628 
	C270.722351,45.955463 260.971527,56.912254 253.730637,68.960487 
	C248.806107,77.154480 240.337646,82.240494 231.958008,86.739838 
	C223.337158,91.368683 214.556122,95.720482 205.698303,99.880768 
	C196.568542,104.168793 187.177292,107.900833 178.055084,112.203941 
	C168.046005,116.925400 157.635605,119.977501 146.643341,121.170921 
	C136.088455,122.316856 128.432571,128.181595 121.553116,135.900482 
	C116.760002,141.278427 111.402245,146.405792 105.491356,150.475357 
	C96.731491,156.506393 92.287384,164.862122 88.860413,174.470245 
	C86.149681,182.070297 82.656357,189.453369 78.875343,196.596573 
	C71.040115,211.399155 63.006973,226.107834 54.629490,240.609192 
	C47.520111,252.915451 39.939976,264.956848 32.332283,276.966034 
	C25.306524,288.056610 14.527653,292.396912 1.438923,292.999054 
	C1.000000,195.741928 1.000000,98.483849 1.000000,1.000000 
	C92.020767,1.000000 183.041733,1.000000 274.531342,1.000000 
z"/>
<path fill="#6C3CFC" opacity="1.000000" stroke="none" 
	d="
M1.000000,395.468658 
	C13.464861,393.109100 24.633980,387.520325 36.064400,382.685089 
	C37.127678,382.235291 38.113663,381.577942 39.085587,380.940826 
	C51.007015,373.125824 62.722382,364.977814 73.035728,355.116852 
	C79.606575,348.834259 85.538605,341.864258 91.516937,334.993561 
	C93.203316,333.055450 93.876366,330.273346 95.298386,328.061066 
	C101.977173,317.670502 108.172646,306.896820 115.669006,297.125549 
	C122.515961,288.200806 130.529510,280.103912 138.536240,272.152985 
	C148.654297,262.105499 158.947174,252.171295 169.859848,243.016937 
	C174.358353,239.243286 180.665161,237.625275 186.559082,235.494171 
	C186.977600,254.910477 187.006088,273.859467 186.991241,292.808380 
	C186.962967,328.876526 186.909927,364.944641 186.867172,401.012817 
	C185.229401,400.909454 183.591629,400.806091 181.079071,400.647522 
	C181.079071,406.162964 181.079071,411.477295 181.079071,416.791626 
	C180.501816,416.810974 179.924561,416.830322 179.347321,416.849670 
	C179.142120,412.594299 178.936920,408.338898 178.666550,402.731812 
	C173.207825,406.075775 168.639160,409.189362 163.792877,411.784515 
	C149.062653,419.672302 134.180878,427.277191 119.456314,435.175323 
	C115.000954,437.565155 111.045708,440.904907 106.549164,443.197083 
	C93.426735,449.886414 82.141357,458.849884 71.237617,468.716644 
	C65.172920,474.204529 56.869789,477.190979 49.665718,481.457153 
	C44.709286,484.392303 40.020054,487.788757 35.003883,490.610077 
	C30.410332,493.193695 25.408451,495.052795 20.822790,497.648590 
	C15.376495,500.731567 10.196229,504.282501 4.866920,507.575989 
	C3.905552,508.170135 2.781296,508.500732 1.366127,508.976501 
	C1.000000,471.312439 1.000000,433.624878 1.000000,395.468658 
z"/>
<path fill="#CBB7FE" opacity="1.000000" stroke="none" 
	d="
M838.759583,496.952484 
	C838.793701,544.336609 838.827820,591.720703 838.643127,639.895752 
	C838.215820,642.183899 838.007324,643.681091 837.343994,645.141663 
	C836.390930,645.073914 835.892639,645.015625 835.394348,645.015564 
	C777.474121,645.005249 719.553955,644.996338 661.633728,645.011292 
	C660.371887,645.011597 659.110107,645.287231 657.268982,645.502014 
	C658.110779,646.606384 658.579895,647.221863 658.699341,648.028259 
	C657.930359,650.250671 657.131592,652.286316 657.153992,654.312866 
	C657.291321,666.754639 657.847595,679.194824 657.820435,691.634644 
	C657.780884,709.772949 657.229553,727.909729 657.143982,746.048401 
	C657.019043,772.530212 657.050232,799.013428 657.183655,825.495178 
	C657.203735,829.471619 656.174805,831.542053 651.887268,831.036621 
	C650.912354,830.921753 649.898010,831.141907 648.441772,831.169495 
	C618.977966,831.139709 589.974304,831.148254 560.506653,831.101929 
	C557.060242,831.031372 554.077820,831.009094 551.095337,831.001160 
	C526.077393,830.934692 501.059479,830.870789 476.010620,830.572937 
	C475.979675,830.339661 475.885651,829.878418 475.868774,829.580200 
	C475.854340,828.883850 475.856812,828.485718 475.776001,827.879517 
	C475.548645,827.405884 475.359802,827.177246 475.116516,826.517822 
	C475.097198,819.899414 475.082520,813.748535 475.079010,807.597656 
	C475.047943,753.070862 475.018860,698.544067 475.027802,643.596924 
	C475.374176,641.040649 475.948944,638.904907 475.950775,636.768616 
	C476.000092,579.618713 475.955658,522.468689 476.061646,465.318939 
	C476.069519,461.070129 474.491272,459.931885 470.475800,459.947113 
	C436.652924,460.075623 402.829407,460.041595 368.536926,460.043579 
	C343.395111,460.009399 318.722473,459.988037 294.034088,459.501373 
	C294.013550,450.373047 294.010284,441.710022 294.003693,433.046997 
	C293.963104,379.736572 293.921753,326.426178 294.356140,273.090363 
	C354.868286,273.032104 414.904938,272.999237 475.207886,272.978638 
	C475.651764,272.996765 475.829376,273.002625 476.005951,273.476562 
	C476.002869,318.632629 476.000824,363.320557 476.001221,408.476196 
	C476.002472,422.593628 475.995972,436.243347 476.002350,449.893066 
	C476.005676,456.988098 476.015930,456.998779 483.205383,456.999451 
	C541.133423,457.004730 599.061523,457.005707 657.338745,457.230927 
	C658.995300,457.637756 660.302612,457.982544 661.609985,457.982422 
	C720.602234,457.977112 779.594482,457.941620 838.586792,457.909637 
	C838.665161,460.326324 838.743591,462.742981 838.597107,465.972961 
	C838.501282,476.841675 838.630432,486.897095 838.759583,496.952484 
z"/>
<path fill="#C0A1F8" opacity="1.000000" stroke="none" 
	d="
M475.998779,408.008484 
	C476.000824,363.320557 476.002869,318.632629 476.387817,273.310730 
	C479.237518,272.459564 481.704132,272.055450 484.171204,272.052643 
	C541.716064,271.987518 599.260925,271.965881 656.805786,271.936218 
	C656.865662,293.023895 656.949097,314.111572 656.979248,335.199280 
	C657.013855,359.445190 657.001221,383.691132 657.062744,408.499512 
	C657.116455,409.061951 657.093079,409.295593 656.621094,409.215088 
	C619.731567,408.759705 583.314636,408.297363 546.896240,408.041046 
	C523.264893,407.874725 499.631348,408.008942 475.998779,408.008484 
z"/>
<path fill="#E5DBFD" opacity="1.000000" stroke="none" 
	d="
M474.941589,272.966370 
	C414.904938,272.999237 354.868286,273.032104 294.125610,273.088867 
	C293.419586,273.112732 292.963806,273.189636 292.605255,273.111298 
	C289.571014,271.719177 286.929138,270.330475 284.213837,269.104431 
	C271.394226,263.315887 258.549957,257.582062 245.723541,251.808578 
	C236.839432,247.809616 227.970047,243.777939 218.984894,239.448792 
	C210.953308,235.547195 203.030899,231.957687 194.778687,228.239227 
	C193.607697,227.751419 192.766510,227.392563 192.225311,226.779236 
	C194.875687,226.009903 197.225433,225.048965 199.576553,225.045593 
	C254.117584,224.967316 308.658752,225.004547 363.199890,224.958176 
	C365.460327,224.956268 367.720215,224.351761 369.966309,224.015747 
	C369.952271,224.003494 369.973785,223.973053 370.192078,223.938232 
	C370.701233,223.798447 370.924530,223.612442 371.080292,223.345367 
	C371.495026,223.290405 371.909790,223.235443 372.847229,223.393600 
	C373.877075,223.775757 374.384216,223.944794 375.031799,224.422531 
	C376.839386,225.778580 378.416504,227.019226 380.187286,227.844147 
	C404.939697,239.375381 429.750153,250.782608 454.470825,262.381195 
	C461.420105,265.641693 468.124725,269.423615 474.941589,272.966370 
z"/>
<path fill="#D5BEFC" opacity="1.000000" stroke="none" 
	d="
M475.207886,272.978638 
	C468.124725,269.423615 461.420105,265.641693 454.470825,262.381195 
	C429.750153,250.782608 404.939697,239.375381 380.187286,227.844147 
	C378.416504,227.019226 376.839386,225.778580 375.510315,224.389145 
	C381.561249,223.777817 387.274048,223.508575 392.986877,223.239349 
	C395.366211,223.190033 397.745514,223.140717 400.932434,223.330170 
	C403.055786,223.712357 404.371490,223.980530 405.687286,223.981110 
	C452.493591,224.001877 499.299896,224.005280 546.106201,223.964630 
	C547.729065,223.963211 549.351624,223.487015 550.974304,223.232086 
	C557.735718,226.129471 564.497192,229.026840 571.942261,232.013641 
	C573.720642,232.472656 574.815247,232.842239 575.909912,233.211823 
	C575.909912,233.211823 575.943604,233.124252 576.106445,233.428177 
	C581.826782,236.236542 587.384277,238.740967 592.941711,241.245407 
	C606.830994,247.586655 620.764465,253.833664 634.591858,260.307129 
	C642.003479,263.776978 649.232605,267.636475 656.674927,271.628174 
	C599.260925,271.965881 541.716064,271.987518 484.171204,272.052643 
	C481.704132,272.055450 479.237518,272.459564 476.388855,272.842590 
	C475.829376,273.002625 475.651764,272.996765 475.207886,272.978638 
z"/>
<path fill="#E5DAFC" opacity="1.000000" stroke="none" 
	d="
M838.495361,457.595520 
	C779.594482,457.941620 720.602234,457.977112 661.609985,457.982422 
	C660.302612,457.982544 658.995300,457.637756 657.342529,456.761383 
	C657.029114,440.477814 657.061096,424.886688 657.093079,409.295593 
	C657.093079,409.295593 657.116455,409.061951 657.059937,408.959167 
	C679.793518,408.901459 702.593079,409.342346 725.368958,408.795593 
	C734.401917,408.578705 741.937744,411.751709 749.657227,415.287720 
	C760.540283,420.272827 771.458862,425.183563 782.279175,430.301636 
	C790.979126,434.416809 799.555847,438.792572 808.803955,443.280060 
	C815.296143,446.186829 821.171631,448.866272 827.047119,451.545685 
	C830.832764,453.457581 834.618347,455.369507 838.495361,457.595520 
z"/>
<path fill="#7151AA" opacity="1.000000" stroke="none" 
	d="
M192.034195,223.116821 
	C198.707382,223.059250 205.380554,223.001678 212.519104,222.903595 
	C257.100128,222.911850 301.215759,222.961472 345.331421,223.008545 
	C353.322418,223.017075 361.313416,223.015152 369.723022,223.278717 
	C370.141632,223.539398 369.973785,223.973053 369.973785,223.973053 
	C369.973785,223.973053 369.952271,224.003494 369.500702,223.995819 
	C316.784637,224.005661 264.520142,224.056625 212.255722,223.999466 
	C205.514893,223.992096 198.774689,223.424759 192.034195,223.116821 
z"/>
<path fill="#C9AFEA" opacity="1.000000" stroke="none" 
	d="
M550.512817,223.155334 
	C549.351624,223.487015 547.729065,223.963211 546.106201,223.964630 
	C499.299896,224.005280 452.493591,224.001877 405.687286,223.981110 
	C404.371490,223.980530 403.055786,223.712357 401.376221,223.380341 
	C408.651794,223.120377 416.291290,222.986038 423.930695,222.988174 
	C465.970886,222.999878 508.011078,223.044952 550.512817,223.155334 
z"/>
<path fill="#6D43EB" opacity="1.000000" stroke="none" 
	d="
M826.997620,451.214417 
	C821.171631,448.866272 815.296143,446.186829 809.177368,443.260376 
	C815.482361,444.392426 823.132568,443.248993 826.997620,451.214417 
z"/>
<path fill="#6D43EB" opacity="1.000000" stroke="none" 
	d="
M592.939087,240.932129 
	C587.384277,238.740967 581.826782,236.236542 576.065186,233.450378 
	C582.292786,233.956039 588.227051,235.883804 592.939087,240.932129 
z"/>
<path fill="#C0A1F8" opacity="1.000000" stroke="none" 
	d="
M838.828552,496.542786 
	C838.630432,486.897095 838.501282,476.841675 838.550171,466.424744 
	C838.835205,474.391083 838.942261,482.718964 839.098755,491.512085 
	C839.064575,493.362579 838.981018,494.747864 838.828552,496.542786 
z"/>
<path fill="#C9AFEA" opacity="1.000000" stroke="none" 
	d="
M392.523682,223.166275 
	C387.274048,223.508575 381.561249,223.777817 375.369873,224.080429 
	C374.384216,223.944794 373.877075,223.775757 373.160339,223.435349 
	C379.320679,223.207047 385.690582,223.150131 392.523682,223.166275 
z"/>
<path fill="#6D43EB" opacity="1.000000" stroke="none" 
	d="
M575.769897,232.922928 
	C574.815247,232.842239 573.720642,232.472656 572.296326,231.979218 
	C573.187744,232.114899 574.408813,232.374466 575.769897,232.922928 
z"/>
<path fill="#C9AFEA" opacity="1.000000" stroke="none" 
	d="
M370.192078,223.938232 
	C369.973785,223.973053 370.141632,223.539398 370.207520,223.316101 
	C370.273438,223.092819 370.688812,223.178696 370.884552,223.262024 
	C370.924530,223.612442 370.701233,223.798447 370.192078,223.938232 
z"/>
<path fill="#9E7DFB" opacity="1.000000" stroke="none" 
	d="
M219.094070,239.760895 
	C227.970047,243.777939 236.839432,247.809616 245.723541,251.808578 
	C258.549957,257.582062 271.394226,263.315887 284.213837,269.104431 
	C286.929138,270.330475 289.571014,271.719177 292.609924,273.564117 
	C292.961670,336.063080 292.950195,398.030853 292.551910,459.991333 
	C290.902161,459.629089 289.565369,459.434845 288.387817,458.893982 
	C278.600067,454.398621 268.867310,449.783173 259.068726,445.311859 
	C242.790909,437.883972 226.522202,430.432922 210.157242,423.200745 
	C202.605164,419.863220 194.834885,417.019501 187.163528,413.951874 
	C187.092087,409.945679 187.020645,405.939453 186.908188,401.473022 
	C186.909927,364.944641 186.962967,328.876526 186.991241,292.808380 
	C187.006088,273.859467 186.977600,254.910477 186.939789,235.496460 
	C187.123108,231.565689 187.335281,228.100021 188.057892,224.514832 
	C189.687317,225.274796 190.806320,226.154236 191.925323,227.033691 
	C192.766510,227.392563 193.607697,227.751419 194.958405,228.482147 
	C203.059387,232.652435 210.648560,236.455414 218.257431,240.218658 
	C218.420868,240.299484 218.810150,239.923676 219.094070,239.760895 
z"/>
<path fill="#996FF1" opacity="1.000000" stroke="none" 
	d="
M187.114410,414.422943 
	C194.834885,417.019501 202.605164,419.863220 210.157242,423.200745 
	C226.522202,430.432922 242.790909,437.883972 259.068726,445.311859 
	C268.867310,449.783173 278.600067,454.398621 288.387817,458.893982 
	C289.565369,459.434845 290.902161,459.629089 292.579987,460.240723 
	C293.008026,460.664185 293.021240,460.830872 293.027649,461.350586 
	C293.314606,462.799835 293.608459,463.896088 293.911957,465.461365 
	C293.915039,524.618286 293.908447,583.306213 293.816406,642.109680 
	C293.627228,642.521057 293.696960,642.775696 293.998047,643.224487 
	C294.056030,643.459839 294.207733,643.920288 293.927795,643.979919 
	C293.141235,644.278259 292.634613,644.517029 292.128021,644.755737 
	C289.038666,643.547119 285.949280,642.338501 282.302307,640.751831 
	C272.492859,636.259094 263.241028,632.144348 253.989197,628.029541 
	C252.202606,627.109314 250.415985,626.189148 248.110199,624.857666 
	C245.109436,623.184326 242.684433,621.792175 240.136047,620.683533 
	C231.110031,616.757080 222.041824,612.927490 212.989594,609.061218 
	C205.656891,605.560608 198.375748,601.945312 190.966568,598.614807 
	C187.927017,597.248474 186.943710,595.300232 186.949036,592.047058 
	C187.045837,532.996216 187.045197,473.945068 187.114410,414.422943 
z"/>
<path fill="#9E7DFB" opacity="1.000000" stroke="none" 
	d="
M440.973785,817.050110 
	C440.973785,817.050110 440.588654,816.954346 440.161316,816.673584 
	C436.034210,814.571838 432.399261,812.601685 428.621277,810.960876 
	C420.789398,807.559448 412.881470,804.333069 405.004822,801.034729 
	C404.186188,800.754211 403.367523,800.473694 402.101990,799.910156 
	C401.460419,799.389954 401.239990,799.179810 400.993866,798.996643 
	C400.993866,798.996643 400.997559,799.002441 400.820435,798.709900 
	C393.758118,795.309692 386.872894,792.202026 379.680481,788.912354 
	C376.263367,787.470215 373.153442,786.210083 370.043518,784.949890 
	C370.043518,784.949890 370.015991,784.991028 369.887695,784.749512 
	C369.504150,784.268799 369.248932,784.029541 368.889526,783.635254 
	C368.630402,783.285583 368.453339,783.113586 368.217102,782.499634 
	C368.180817,739.682861 368.181580,697.330933 368.353302,654.698120 
	C368.413849,652.950256 368.303467,651.483337 368.180756,649.616455 
	C368.189880,648.150452 368.211365,647.084412 368.381775,645.866211 
	C368.714233,645.493958 368.870667,645.256042 369.000153,644.750793 
	C369.000336,644.501221 369.000610,644.002014 369.469208,644.008606 
	C404.284851,644.045593 438.631927,644.075928 472.983704,644.564331 
	C472.993225,702.781677 472.971710,760.540955 473.057678,818.300110 
	C473.063873,822.453125 472.840240,825.670898 467.398041,825.210571 
	C466.635590,825.146057 465.751678,826.517334 464.571106,827.131226 
	C456.470062,823.709045 448.721924,820.379578 440.973785,817.050110 
z"/>
<path fill="#683AED" opacity="1.000000" stroke="none" 
	d="
M368.182373,654.978943 
	C368.181580,697.330933 368.180817,739.682861 368.184143,782.813477 
	C368.230499,784.009033 368.272705,784.426025 368.314941,784.842957 
	C364.671600,784.966431 365.020447,782.321228 365.016418,780.003357 
	C364.995117,767.684265 365.005157,755.365112 365.004944,743.046021 
	C365.004425,715.744202 364.904297,688.441650 365.097778,661.141235 
	C365.131927,656.323853 363.626190,654.827820 358.830872,654.904663 
	C343.019836,655.158020 327.202240,655.006042 311.387146,654.986328 
	C309.649536,654.984192 307.912140,654.830811 306.174622,654.747559 
	C306.150879,654.292969 306.127136,653.838440 306.103363,653.383850 
	C307.756134,653.256775 309.408691,653.022217 311.061676,653.019348 
	C327.376129,652.990906 343.691101,652.935303 360.004822,653.049255 
	C363.776062,653.075562 365.711639,651.872803 365.186218,647.636475 
	C363.674011,647.204407 362.116180,646.759277 360.595093,645.859192 
	C363.070221,645.296448 365.508636,645.188721 368.011353,645.317261 
	C368.075684,645.553406 368.232819,646.018372 368.232819,646.018372 
	C368.211365,647.084412 368.189880,648.150452 368.125427,650.027222 
	C368.115753,652.218262 368.149048,653.598572 368.182373,654.978943 
z"/>
<path fill="#6C3DF4" opacity="1.000000" stroke="none" 
	d="
M476.041534,830.806152 
	C501.059479,830.870789 526.077393,830.934692 551.095337,831.001160 
	C554.077820,831.009094 557.060242,831.031372 560.514404,831.408203 
	C560.992310,832.178040 560.998596,832.586548 561.004883,832.995117 
	C557.554077,837.179993 554.139221,841.395386 550.636169,845.536011 
	C549.072266,847.384460 547.330933,849.082825 545.332642,850.921997 
	C546.501831,847.991699 547.786255,844.847168 549.581238,842.027710 
	C551.194641,839.493591 553.368652,837.316284 556.277039,833.791931 
	C552.541687,833.413696 550.512634,833.032593 548.482910,833.029297 
	C522.833130,832.988037 497.182373,833.102234 471.534943,832.854675 
	C468.755920,832.827820 465.996338,830.787537 463.429260,829.330444 
	C464.428040,828.742371 465.225250,828.504944 466.366791,828.241577 
	C467.171600,828.221313 467.632141,828.226929 468.227081,828.373596 
	C468.554932,828.692383 468.768494,828.841309 469.016907,828.960938 
	C469.031616,828.960510 469.046295,828.986023 469.098083,829.234375 
	C469.767700,829.645691 470.385590,829.808655 471.371307,829.983032 
	C472.475128,830.003296 473.211090,830.012207 474.128357,830.260742 
	C474.886963,830.602295 475.464264,830.704224 476.041534,830.806152 
z"/>
<path fill="#6D43EB" opacity="1.000000" stroke="none" 
	d="
M213.020706,609.423950 
	C222.041824,612.927490 231.110031,616.757080 240.136047,620.683533 
	C242.684433,621.792175 245.109436,623.184326 247.805756,624.714355 
	C244.415131,624.031677 240.717102,623.337280 237.224731,622.074158 
	C230.983170,619.816772 224.774094,617.416199 218.744690,614.653625 
	C216.561981,613.653564 214.933304,611.444214 213.020706,609.423950 
z"/>
<path fill="#6D43EB" opacity="1.000000" stroke="none" 
	d="
M405.082581,801.372559 
	C412.881470,804.333069 420.789398,807.559448 428.621277,810.960876 
	C432.399261,812.601685 436.034210,814.571838 439.963501,816.657715 
	C435.355988,815.422485 430.469910,814.061890 425.695465,812.383667 
	C420.762085,810.649536 415.825836,808.840698 411.113342,806.597168 
	C408.863403,805.526123 407.128510,803.373230 405.082581,801.372559 
z"/>
<path fill="#8C6ED6" opacity="1.000000" stroke="none" 
	d="
M367.947021,645.081055 
	C365.508636,645.188721 363.070221,645.296448 360.310669,645.626831 
	C344.525421,645.561768 329.062195,645.180847 313.596771,645.043152 
	C308.965210,645.001831 304.331482,645.772827 299.691010,645.909729 
	C297.410919,645.977051 295.113190,645.446167 292.475708,644.970947 
	C292.634613,644.517029 293.141235,644.278259 294.283234,643.995728 
	C295.636871,643.923279 296.355103,643.894592 297.475769,643.901978 
	C299.224396,643.911072 300.570587,643.884094 302.389526,643.890869 
	C320.267639,643.903503 337.673035,643.882324 355.480164,643.898560 
	C357.226501,643.910950 358.571075,643.885864 360.359985,643.895630 
	C362.890564,643.911621 364.976776,643.892761 367.295837,643.912109 
	C367.528625,643.950378 367.997498,644.002930 367.999023,644.250488 
	C368.000519,644.497986 368.003204,644.995972 367.987549,645.016113 
	C367.971893,645.036316 367.947021,645.080994 367.947021,645.081055 
z"/>
<path fill="#6D43EB" opacity="1.000000" stroke="none" 
	d="
M466.022491,828.267517 
	C465.225250,828.504944 464.428040,828.742371 463.313568,828.992920 
	C457.821442,826.843140 452.565033,824.851196 447.507599,822.441589 
	C445.144318,821.315613 443.165924,819.381714 440.993439,817.432007 
	C448.721924,820.379578 456.470062,823.709045 464.733765,827.323242 
	C465.507019,827.827881 465.764771,828.047729 466.022491,828.267517 
z"/>
<path fill="#6D43EB" opacity="1.000000" stroke="none" 
	d="
M254.032288,628.384644 
	C263.241028,632.144348 272.492859,636.259094 281.977600,640.633240 
	C277.407928,639.410889 272.570038,638.032776 267.814667,636.412415 
	C264.414276,635.253845 261.030762,633.957275 257.827179,632.348816 
	C256.345886,631.605225 255.312057,629.970459 254.032288,628.384644 
z"/>
<path fill="#6D43EB" opacity="1.000000" stroke="none" 
	d="
M379.987671,789.094360 
	C386.872894,792.202026 393.758118,795.309692 400.822449,798.712341 
	C393.017975,799.407898 387.104065,794.424011 380.272522,790.750671 
	C380.001648,789.938416 379.994659,789.516357 379.987671,789.094360 
z"/>
<path fill="#683AED" opacity="1.000000" stroke="none" 
	d="
M379.680481,788.912354 
	C379.994659,789.516357 380.001648,789.938416 380.012878,790.677246 
	C376.737244,789.208069 373.457397,787.421997 370.110535,785.292908 
	C373.153442,786.210083 376.263367,787.470215 379.680481,788.912354 
z"/>
<path fill="#8A67FD" opacity="1.000000" stroke="none" 
	d="
M368.428284,784.857422 
	C368.272705,784.426025 368.230499,784.009033 368.221222,783.278198 
	C368.453339,783.113586 368.630402,783.285583 368.838501,783.920898 
	C368.849030,784.549377 368.806488,784.737122 368.763916,784.924927 
	C368.763916,784.924927 368.541626,784.871887 368.428284,784.857422 
z"/>
<path fill="#6D43EB" opacity="1.000000" stroke="none" 
	d="
M401.121704,799.187988 
	C401.239990,799.179810 401.460419,799.389954 401.792114,799.808899 
	C401.668732,799.824524 401.442230,799.620667 401.121704,799.187988 
z"/>
<path fill="#683AED" opacity="1.000000" stroke="none" 
	d="
M369.081207,784.942444 
	C368.806488,784.737122 368.849030,784.549377 368.942627,784.075928 
	C369.248932,784.029541 369.504150,784.268799 369.896667,784.730774 
	C369.822174,784.955627 369.610321,784.957825 369.081207,784.942444 
z"/>
<path fill="#896CEE" opacity="1.000000" stroke="none" 
	d="
M895.006287,861.007324 
	C893.460632,861.670593 891.916870,862.907532 890.369019,862.912598 
	C856.719421,863.022888 823.069458,863.010803 789.419617,862.942200 
	C788.054260,862.939392 786.690491,862.154663 785.623901,861.374634 
	C822.283264,861.012451 858.644775,861.009888 895.006287,861.007324 
z"/>
<path fill="#8C6ED6" opacity="1.000000" stroke="none" 
	d="
M896.837585,688.894287 
	C896.891602,714.180420 896.975586,739.466614 896.992065,764.752747 
	C897.012268,795.862915 896.976257,826.973022 896.734863,858.550781 
	C896.505249,859.018311 896.106628,859.017090 896.033813,858.551208 
	C895.948914,802.700134 895.935730,747.314941 895.935059,691.929749 
	C895.935059,690.936890 896.086365,689.943970 896.334717,688.936890 
	C896.502319,688.922668 896.837585,688.894287 896.837585,688.894287 
z"/>
<path fill="#866ED1" opacity="1.000000" stroke="none" 
	d="
M896.106628,859.017090 
	C896.106628,859.017090 896.505249,859.018311 896.703552,859.019836 
	C896.460266,859.624146 896.018677,860.226929 895.291626,860.918518 
	C858.644775,861.009888 822.283264,861.012451 785.451050,861.026001 
	C781.299866,861.013428 777.619324,860.989868 773.467407,860.749084 
	C772.995972,860.531921 772.973877,860.124817 773.442078,860.075073 
	C812.222412,860.020447 850.534546,860.033447 888.846558,859.967957 
	C891.267090,859.963806 893.686646,859.348206 896.106628,859.017090 
z"/>
<path fill="#7758C9" opacity="1.000000" stroke="none" 
	d="
M772.973877,860.124817 
	C772.973877,860.124817 772.995972,860.531921 773.008301,860.734802 
	C772.856506,860.968933 772.692322,861.000183 772.283081,861.083740 
	C754.575439,861.097168 737.112732,861.071350 719.650269,861.001526 
	C717.670715,860.993591 715.692200,860.738037 713.402039,860.296448 
	C713.090881,859.995605 713.125366,859.771118 713.579590,859.826660 
	C733.680481,859.963074 753.327209,860.043945 772.973877,860.124817 
z"/>
<path fill="#7758C9" opacity="1.000000" stroke="none" 
	d="
M896.874756,688.580078 
	C896.837585,688.894287 896.502319,688.922668 896.263000,688.608704 
	C895.939880,687.854858 895.856079,687.414917 895.839355,686.516785 
	C895.614624,681.372986 895.322815,676.687500 894.724854,671.822632 
	C890.257507,669.794312 886.096436,667.945374 881.935303,666.096436 
	C887.914856,664.132202 896.907898,670.161438 896.968384,676.184082 
	C897.001526,679.480103 897.008911,682.776428 897.046570,686.539917 
	C897.014160,687.426880 896.963013,687.846375 896.874756,688.580078 
z"/>
<path fill="#E5DAFC" opacity="1.000000" stroke="none" 
	d="
M881.620728,665.934814 
	C886.096436,667.945374 890.257507,669.794312 894.707825,672.057983 
	C894.997009,672.472717 894.938354,672.941345 894.473694,672.953369 
	C833.647827,672.997375 773.286621,673.029358 712.555908,673.021973 
	C706.274719,670.251709 700.363159,667.520630 694.195557,664.535278 
	C688.958679,661.940430 683.977905,659.599915 678.623901,657.140259 
	C671.850159,653.959839 665.449585,650.898560 659.049011,647.837280 
	C658.579895,647.221863 658.110779,646.606384 657.268982,645.502014 
	C659.110107,645.287231 660.371887,645.011597 661.633728,645.011292 
	C719.553955,644.996338 777.474121,645.005249 835.394348,645.015564 
	C835.892639,645.015625 836.390930,645.073914 837.530090,645.360291 
	C839.118652,645.707581 840.066345,645.799622 841.014038,645.891663 
	C846.485779,648.649597 851.936951,651.449463 857.434265,654.155457 
	C865.373962,658.063782 873.347229,661.903992 881.620728,665.934814 
z"/>
<path fill="#C0A1F8" opacity="1.000000" stroke="none" 
	d="
M840.880798,645.571045 
	C840.066345,645.799622 839.118652,645.707581 837.984863,645.396912 
	C838.007324,643.681091 838.215820,642.183899 838.602661,640.365417 
	C839.436462,641.779541 840.092041,643.515015 840.880798,645.571045 
z"/>
<path fill="#D5BEFC" opacity="1.000000" stroke="none" 
	d="
M192.225311,226.779236 
	C190.806320,226.154236 189.687317,225.274796 188.316925,224.198639 
	C189.192337,223.622391 190.319138,223.242874 191.740051,222.990082 
	C198.774689,223.424759 205.514893,223.992096 212.255722,223.999466 
	C264.520142,224.056625 316.784637,224.005661 369.514771,224.008072 
	C367.720215,224.351761 365.460327,224.956268 363.199890,224.958176 
	C308.658752,225.004547 254.117584,224.967316 199.576553,225.045593 
	C197.225433,225.048965 194.875687,226.009903 192.225311,226.779236 
z"/>
<path fill="#9F7EFA" opacity="1.000000" stroke="none" 
	d="
M658.699341,648.028259 
	C665.449585,650.898560 671.850159,653.959839 678.635498,657.495850 
	C682.429810,664.167969 688.823486,663.612549 694.451538,664.789612 
	C700.363159,667.520630 706.274719,670.251709 712.599487,673.483704 
	C713.029968,678.645691 713.060669,683.306763 713.062561,687.967773 
	C713.085999,745.235535 713.105103,802.503357 713.125366,859.771118 
	C713.125366,859.771118 713.090881,859.995605 713.040039,860.098511 
	C704.915161,856.863647 696.776306,853.672974 688.781738,850.154480 
	C676.065918,844.558167 663.446289,838.743347 650.278442,832.774902 
	C649.481201,832.088501 649.191528,831.648193 648.901794,831.207825 
	C649.898010,831.141907 650.912354,830.921753 651.887268,831.036621 
	C656.174805,831.542053 657.203735,829.471619 657.183655,825.495178 
	C657.050232,799.013428 657.019043,772.530212 657.143982,746.048401 
	C657.229553,727.909729 657.780884,709.772949 657.820435,691.634644 
	C657.847595,679.194824 657.291321,666.754639 657.153992,654.312866 
	C657.131592,652.286316 657.930359,650.250671 658.699341,648.028259 
z"/>
<path fill="#7650EB" opacity="1.000000" stroke="none" 
	d="
M648.441772,831.169495 
	C649.191528,831.648193 649.481201,832.088501 649.909424,832.753784 
	C620.679016,832.985229 591.309998,832.991699 561.473022,832.996582 
	C560.998596,832.586548 560.992310,832.178040 560.978271,831.463135 
	C589.974304,831.148254 618.977966,831.139709 648.441772,831.169495 
z"/>
<path fill="#BBA1FC" opacity="1.000000" stroke="none" 
	d="
M367.997498,644.002930 
	C367.997498,644.002930 367.528625,643.950378 367.548218,643.637634 
	C368.045105,640.961060 368.936096,638.597717 368.939301,636.233276 
	C369.018555,577.507690 369.003998,518.782104 369.006104,460.056458 
	C402.829407,460.041595 436.652924,460.075623 470.475800,459.947113 
	C474.491272,459.931885 476.069519,461.070129 476.061646,465.318939 
	C475.955658,522.468689 476.000092,579.618713 475.950775,636.768616 
	C475.948944,638.904907 475.374176,641.040649 474.692749,643.604614 
	C473.872375,644.057129 473.425659,644.081726 472.978973,644.106323 
	C438.631927,644.075928 404.284851,644.045593 369.218262,644.007446 
	C368.331635,644.000793 368.164551,644.001892 367.997498,644.002930 
z"/>
<path fill="#C0A1F8" opacity="1.000000" stroke="none" 
	d="
M368.536926,460.043610 
	C369.003998,518.782104 369.018555,577.507690 368.939301,636.233276 
	C368.936096,638.597717 368.045105,640.961060 367.315399,643.599365 
	C364.976776,643.892761 362.890564,643.911621 360.090790,643.717896 
	C357.944305,643.623901 356.511353,643.742554 355.078400,643.861145 
	C337.673035,643.882324 320.267639,643.903503 302.119751,643.713623 
	C299.942627,643.623657 298.507965,643.744812 297.073334,643.865967 
	C296.355103,643.894592 295.636871,643.923279 294.563171,643.936157 
	C294.207733,643.920288 294.056030,643.459839 293.999817,642.975464 
	C293.943573,642.491089 293.901886,641.994141 293.901886,641.994141 
	C293.908447,583.306213 293.915039,524.618286 293.942047,465.065430 
	C293.956696,463.140594 293.950958,462.080688 293.968018,460.756897 
	C294.010498,460.317596 294.030182,460.142120 294.049835,459.966675 
	C318.722473,459.988037 343.395111,460.009399 368.536926,460.043610 
z"/>
<path fill="#D6C6FE" opacity="1.000000" stroke="none" 
	d="
M656.621094,409.215088 
	C657.061096,424.886688 657.029114,440.477814 656.993347,456.538452 
	C599.061523,457.005707 541.133423,457.004730 483.205383,456.999451 
	C476.015930,456.998779 476.005676,456.988098 476.002350,449.893066 
	C475.995972,436.243347 476.002472,422.593628 476.001221,408.476196 
	C499.631348,408.008942 523.264893,407.874725 546.896240,408.041046 
	C583.314636,408.297363 619.731567,408.759705 656.621094,409.215088 
z"/>
<path fill="#A184EF" opacity="1.000000" stroke="none" 
	d="
M472.983704,644.564331 
	C473.425659,644.081726 473.872375,644.057129 474.654114,644.024902 
	C475.018860,698.544067 475.047943,753.070862 475.079010,807.597656 
	C475.082520,813.748535 475.097198,819.899414 475.205261,826.721680 
	C475.449127,827.656433 475.634277,827.887939 475.859253,828.087646 
	C475.856812,828.485718 475.854340,828.883850 475.547302,829.609253 
	C474.810852,829.964722 474.378967,829.992920 473.947052,830.021118 
	C473.211090,830.012207 472.475128,830.003296 471.187439,829.766357 
	C470.105927,829.354248 469.576111,829.170105 469.046326,828.985962 
	C469.046295,828.986023 469.031616,828.960510 468.910248,828.787109 
	C468.612213,828.385254 468.380157,828.258240 468.092651,828.232544 
	C467.632141,828.226929 467.171600,828.221313 466.366791,828.241577 
	C465.764771,828.047729 465.507019,827.827881 465.086639,827.416077 
	C465.751678,826.517334 466.635590,825.146057 467.398041,825.210571 
	C472.840240,825.670898 473.063873,822.453125 473.057678,818.300110 
	C472.971710,760.540955 472.993225,702.781677 472.983704,644.564331 
z"/>
<path fill="#A88FE4" opacity="1.000000" stroke="none" 
	d="
M294.034088,459.501373 
	C294.030182,460.142120 294.010498,460.317596 293.740601,460.749939 
	C293.490417,461.006866 293.034485,460.997589 293.034485,460.997589 
	C293.021240,460.830872 293.008026,460.664185 292.966766,460.248047 
	C292.950195,398.030853 292.961670,336.063080 292.968506,273.642456 
	C292.963806,273.189636 293.419586,273.112732 293.650116,273.114258 
	C293.921753,326.426178 293.963104,379.736572 294.003693,433.046997 
	C294.010284,441.710022 294.013550,450.373047 294.034088,459.501373 
z"/>
<path fill="#BBA1FC" opacity="1.000000" stroke="none" 
	d="
M474.128357,830.260742 
	C474.378967,829.992920 474.810852,829.964722 475.564209,829.907471 
	C475.885651,829.878418 475.979675,830.339661 476.010620,830.572876 
	C475.464264,830.704224 474.886963,830.602295 474.128357,830.260742 
z"/>
<path fill="#BBA1FC" opacity="1.000000" stroke="none" 
	d="
M475.776001,827.879517 
	C475.634277,827.887939 475.449127,827.656433 475.215057,827.189209 
	C475.359802,827.177246 475.548645,827.405884 475.776001,827.879517 
z"/>
<path fill="#A88FE4" opacity="1.000000" stroke="none" 
	d="
M218.984894,239.448807 
	C218.810150,239.923676 218.420868,240.299484 218.257431,240.218658 
	C210.648560,236.455414 203.059387,232.652435 195.288208,228.611099 
	C203.030899,231.957687 210.953308,235.547195 218.984894,239.448807 
z"/>
<path fill="#A184EF" opacity="1.000000" stroke="none" 
	d="
M293.027649,461.350586 
	C293.034485,460.997589 293.490417,461.006866 293.717834,461.013824 
	C293.950958,462.080688 293.956696,463.140594 293.932373,464.596436 
	C293.608459,463.896088 293.314606,462.799835 293.027649,461.350586 
z"/>
<path fill="#A184EF" opacity="1.000000" stroke="none" 
	d="
M293.816406,642.109680 
	C293.901886,641.994141 293.943573,642.491089 293.941833,642.740112 
	C293.696960,642.775696 293.627228,642.521057 293.816406,642.109680 
z"/>
<path fill="#8A67FD" opacity="1.000000" stroke="none" 
	d="
M368.353302,654.698120 
	C368.149048,653.598572 368.115753,652.218262 368.137756,650.427124 
	C368.303467,651.483337 368.413849,652.950256 368.353302,654.698120 
z"/>
<path fill="#8A67FD" opacity="1.000000" stroke="none" 
	d="
M368.381775,645.866211 
	C368.232819,646.018372 368.075684,645.553406 368.011353,645.317200 
	C367.947021,645.080994 367.971893,645.036316 368.235962,645.017822 
	C368.500000,644.999268 368.999969,645.000366 368.999969,645.000366 
	C368.870667,645.256042 368.714233,645.493958 368.381775,645.866211 
z"/>
<path fill="#A184EF" opacity="1.000000" stroke="none" 
	d="
M369.000153,644.750793 
	C368.999969,645.000366 368.500000,644.999268 368.251587,644.997620 
	C368.003204,644.995972 368.000519,644.497986 367.999023,644.250488 
	C368.164551,644.001892 368.331635,644.000793 368.749695,644.000854 
	C369.000610,644.002014 369.000336,644.501221 369.000153,644.750793 
z"/>
<path fill="#6D43EB" opacity="1.000000" stroke="none" 
	d="
M469.098083,829.234375 
	C469.576111,829.170105 470.105927,829.354248 470.819580,829.755005 
	C470.385590,829.808655 469.767700,829.645691 469.098083,829.234375 
z"/>
<path fill="#6D43EB" opacity="1.000000" stroke="none" 
	d="
M468.227081,828.373657 
	C468.380157,828.258240 468.612213,828.385254 468.895508,828.787476 
	C468.768494,828.841309 468.554932,828.692383 468.227081,828.373657 
z"/>
<path fill="#BBA1FC" opacity="1.000000" stroke="none" 
	d="
M355.480164,643.898560 
	C356.511353,643.742554 357.944305,643.623901 359.646423,643.682983 
	C358.571075,643.885864 357.226501,643.910950 355.480164,643.898560 
z"/>
<path fill="#BBA1FC" opacity="1.000000" stroke="none" 
	d="
M297.475769,643.901978 
	C298.507965,643.744812 299.942627,643.623657 301.647003,643.679810 
	C300.570587,643.884094 299.224396,643.911072 297.475769,643.901978 
z"/>
<path fill="#CCB9FD" opacity="1.000000" stroke="none" 
	d="
M713.579590,859.826660 
	C713.105103,802.503357 713.085999,745.235535 713.062561,687.967773 
	C713.060669,683.306763 713.029968,678.645691 712.968994,673.522949 
	C773.286621,673.029358 833.647827,672.997375 894.486938,673.421570 
	C895.233948,678.243469 895.503113,682.609253 895.772278,686.975037 
	C895.856079,687.414917 895.939880,687.854858 896.095337,688.622925 
	C896.086365,689.943970 895.935059,690.936890 895.935059,691.929749 
	C895.935730,747.314941 895.948914,802.700134 896.033813,858.551208 
	C893.686646,859.348206 891.267090,859.963806 888.846558,859.967957 
	C850.534546,860.033447 812.222412,860.020447 773.442078,860.075073 
	C753.327209,860.043945 733.680481,859.963074 713.579590,859.826660 
z"/>
<path fill="#BBA1FC" opacity="1.000000" stroke="none" 
	d="
M895.839355,686.516785 
	C895.503113,682.609253 895.233948,678.243469 894.951538,673.409546 
	C894.938354,672.941345 894.997009,672.472717 895.014038,672.237305 
	C895.322815,676.687500 895.614624,681.372986 895.839355,686.516785 
z"/>
<path fill="#A88FE4" opacity="1.000000" stroke="none" 
	d="
M694.195557,664.535278 
	C688.823486,663.612549 682.429810,664.167969 679.008667,657.614990 
	C683.977905,659.599915 688.958679,661.940430 694.195557,664.535278 
z"/>
</svg>